<?xml version="1.0" encoding="UTF-8"?>
<svg width="30px" height="30px" viewBox="0 0 30 30" version="1.1" xmlns="http://www.w3.org/2000/svg" xmlns:xlink="http://www.w3.org/1999/xlink">
    <!-- Generator: sketchtool 62 (101010) - https://sketch.com -->
    <title>13D4B586-7A4B-4C63-96B2-B778CAC336F9</title>
    <desc>Created with sketchtool.</desc>
    <g id="Asset-Artboard-Page" stroke="none" stroke-width="1" fill="none" fill-rule="evenodd">
        <g id="Assets-/-Icons-/-Social-/-Facebook" fill="#595454" fill-rule="nonzero">
            <path d="M25.0065789,3.75 L4.99342105,3.75 C4.30669857,3.75 3.75,4.30669857 3.75,4.99342105 L3.75,25.0065789 C3.75,25.6933014 4.30669857,26.25 4.99342105,26.25 L15.7697368,26.25 L15.7697368,17.5657895 L12.8289474,17.5657895 L12.8289474,14.1434211 L15.7539474,14.1434211 L15.7539474,11.6447368 C15.7539474,8.73552632 17.5263158,7.15263158 20.1197368,7.15263158 C21.00074,7.15524916 21.8809625,7.2053217 22.7565789,7.30263158 L22.7565789,10.3381579 L20.9644737,10.3381579 C19.5552632,10.3381579 19.2828947,11.0052632 19.2828947,11.9881579 L19.2828947,14.1592105 L22.6578947,14.1592105 L22.2197368,17.5657895 L19.2828947,17.5657895 L19.2828947,26.25 L25.0065789,26.25 C25.6933014,26.25 26.25,25.6933014 26.25,25.0065789 L26.25,4.99342105 C26.25,4.30669857 25.6933014,3.75 25.0065789,3.75 Z" id="Path"></path>
        </g>
    </g>
</svg>