<?xml version="1.0" encoding="UTF-8"?>
<svg width="30px" height="30px" viewBox="0 0 30 30" version="1.1" xmlns="http://www.w3.org/2000/svg" xmlns:xlink="http://www.w3.org/1999/xlink">
    <!-- Generator: sketchtool 62 (101010) - https://sketch.com -->
    <title>80CF7840-EA38-4278-8253-CE77976AAF0A</title>
    <desc>Created with sketchtool.</desc>
    <g id="Asset-Artboard-Page" stroke="none" stroke-width="1" fill="none" fill-rule="evenodd">
        <g id="Assets-/-Icons-/-Social-/-Facebook-Assets-/-Icons-/-Social-/-Instagram" fill="#595454" fill-rule="nonzero">
            <path d="M14.9754956,3.79321784 C18.022575,3.79455447 18.4075255,3.80792081 19.6020305,3.86227724 C20.7965355,3.91663368 21.6127732,4.10643566 22.3256445,4.38356436 C23.0748298,4.66564475 23.7534372,5.10781144 24.31411,5.67920791 C24.8851307,6.23983957 25.3269857,6.91828309 25.6088625,7.66722768 C25.8864368,8.38009896 26.0757932,9.19277222 26.1305952,10.3899504 C26.1816178,11.5045646 26.1963366,11.9128021 26.1981241,14.4240155 L26.1981182,15.6116633 C26.1962794,18.1231845 26.1812029,18.5335676 26.1305952,19.6456929 C26.0762388,20.8401978 25.8864368,21.6573265 25.6088625,22.3701978 C25.0257456,23.8781916 23.8336385,25.0702986 22.3256445,25.6534155 C21.6127732,25.9309898 20.8000999,26.1203462 19.6029216,26.1751482 C18.5295894,26.224281 18.1112786,26.2397495 15.8393685,26.2424241 L14.1106547,26.2424113 C11.8383257,26.2396669 11.4181141,26.2238816 10.3471786,26.1751482 C9.15267355,26.1207918 8.33554479,25.9309898 7.62267347,25.6534155 C6.87336942,25.371523 6.19460828,24.9295072 5.63376247,24.3582175 C5.06274171,23.7975859 4.62088672,23.1191424 4.33900993,22.3701978 C4.0618812,21.6573265 3.87252476,20.8437622 3.81772278,19.646584 C3.77047969,18.6145338 3.75436115,18.1880878 3.75081345,16.1370913 L3.75083537,13.9002027 C3.7544671,11.8487019 3.77086378,11.4205871 3.81772278,10.3908415 C3.87207921,9.19633657 4.0618812,8.38009896 4.33900993,7.66722768 C4.62077198,6.91796433 5.0626336,6.23920654 5.63376247,5.67831682 C6.19465223,5.10718799 6.87341006,4.6653264 7.62267347,4.38356436 C8.33554479,4.10643566 9.15044583,3.91574259 10.3476241,3.86094061 C11.3796743,3.81369752 11.8061204,3.79757898 13.857117,3.79403129 L14.9754956,3.79321784 Z M14.975495,5.81554458 C11.9783168,5.81554458 11.6232178,5.82712873 10.4398515,5.88103962 C9.34559406,5.93094061 8.75123762,6.11361388 8.35559406,6.26732675 C7.86755214,6.44699233 7.42602223,6.73383452 7.06351485,7.10673267 C6.69061669,7.46924004 6.4037745,7.91076995 6.22410892,8.39881186 C6.07039604,8.79445541 5.88772278,9.38881184 5.83782179,10.4830692 C5.78948788,11.5444178 5.77517642,11.9392847 5.77273268,14.1695479 L5.77273268,15.8678903 C5.77517642,18.0982234 5.78948788,18.4934071 5.83782179,19.5543562 C5.88772278,20.6486136 6.07039604,21.24297 6.22410892,21.6386136 C6.4037745,22.1266555 6.69061669,22.5681854 7.06351485,22.9306928 C7.42602223,23.3035909 7.86755214,23.5904331 8.35559406,23.7700987 C8.75123762,23.9238116 9.34559406,24.1064848 10.4398515,24.1563858 C11.5008006,24.2047197 11.8959843,24.2190312 14.1263174,24.2214749 L15.8246727,24.2214749 C18.0550058,24.2190312 18.4501895,24.2047197 19.5111386,24.1563858 C20.605396,24.1064848 21.1997525,23.9238116 21.595396,23.7700987 C22.5742409,23.3924796 23.3479254,22.6187951 23.7255445,21.6399502 C23.8792574,21.2443067 24.0619307,20.6499503 24.1118317,19.5556928 C24.1620246,18.4535232 24.1755276,18.0700889 24.1771513,15.6035885 L24.1771513,14.4365043 C24.1755276,11.9699526 24.1620246,11.5861607 24.1118317,10.4844059 C24.0619307,9.39014847 23.8792574,8.79579205 23.7255445,8.40014849 C23.5458789,7.91210658 23.2590368,7.47057668 22.8861386,7.10806931 C22.5236312,6.73517115 22.0821013,6.44832896 21.5940594,6.26866338 C21.1984158,6.11495051 20.6040594,5.93227725 19.509802,5.88237626 C18.4076323,5.83218336 18.024198,5.81868034 15.5576975,5.81705658 L14.9741584,5.81688121 Z M14.9741584,9.25514847 C16.5027506,9.25514847 17.9687357,9.86237937 19.0496137,10.9432573 C20.1304916,12.0241353 20.7377225,13.4901203 20.7377225,15.0187126 C20.7377225,18.2018411 18.157287,20.7822767 14.9741584,20.7822767 C11.7910298,20.7822767 9.2105943,18.2018411 9.2105943,15.0187126 C9.2105943,11.835584 11.7910298,9.25514847 14.9741584,9.25514847 Z M14.9741586,11.2761386 C12.9071919,11.2761386 11.2315844,12.9517461 11.2315844,15.0187127 C11.2315844,17.0856794 12.9071919,18.7612869 14.9741586,18.7612869 C15.9667509,18.7612869 16.9186893,18.3669811 17.6205581,17.6651123 C18.3224269,16.9632435 18.7167327,16.0113051 18.7167327,15.0187127 C18.7167327,12.9517461 17.0411252,11.2761386 14.9741586,11.2761386 Z M20.9658419,7.68014848 C21.7097038,7.68014848 22.3127231,8.28316775 22.3127231,9.02702972 C22.3127231,9.77089169 21.7097038,10.373911 20.9658419,10.373911 C20.2219799,10.373911 19.6189606,9.77089169 19.6189606,9.02702972 C19.6189606,8.28316775 20.2219799,7.68014848 20.9658419,7.68014848 Z" id="Combined-Shape"></path>
        </g>
    </g>
</svg>