<?xml version="1.0" encoding="UTF-8"?>
<svg width="30px" height="30px" viewBox="0 0 30 30" version="1.1" xmlns="http://www.w3.org/2000/svg" xmlns:xlink="http://www.w3.org/1999/xlink">
    <!-- Generator: sketchtool 62 (101010) - https://sketch.com -->
    <title>322247BF-904F-4B9E-BCC7-33DD2551A504</title>
    <desc>Created with sketchtool.</desc>
    <g id="Asset-Artboard-Page" stroke="none" stroke-width="1" fill="none" fill-rule="evenodd">
        <g id="Assets-/-Icons-/-Social-/-Facebook-Assets-/-Icons-/-Social-/-YouTube" fill="#595454" fill-rule="nonzero">
            <path d="M28.2044219,7.93704316 C27.8881738,6.76237635 26.970617,5.84481951 25.7959502,5.52857146 C23.6700367,4.95000005 15.1506848,4.95000005 15.1506848,4.95000005 C15.1506848,4.95000005 6.62909035,4.95000005 4.50766184,5.51960136 C3.33071664,5.83745416 2.41266551,6.75892447 2.09919016,7.93704316 C1.52958885,10.0607142 1.52958885,14.4941858 1.52958885,14.4941858 C1.52958885,14.4941858 1.52958885,18.9276575 2.09919016,21.0513285 C2.4154382,22.2259953 3.33299504,23.1435522 4.50766184,23.4598002 C6.63133287,24.0294015 15.1506848,24.0294015 15.1506848,24.0294015 C15.1506848,24.0294015 23.6722792,24.0294015 25.7937077,23.4598002 C26.9692375,23.1442444 27.8877721,22.2265642 28.2044219,21.0513285 C28.7740232,18.9276575 28.7740232,14.4941858 28.7740232,14.4941858 C28.7740232,14.4941858 28.7650531,10.0607142 28.2044219,7.93704316 Z M12.42826,18.5800666 L12.42826,10.4083055 L19.5056684,14.494186 L12.42826,18.5800666 Z" id="Shape"></path>
        </g>
    </g>
</svg>