<?xml version="1.0" encoding="UTF-8"?>
<svg width="30px" height="30px" viewBox="0 0 30 30" version="1.1" xmlns="http://www.w3.org/2000/svg" xmlns:xlink="http://www.w3.org/1999/xlink">
    <!-- Generator: sketchtool 62 (101010) - https://sketch.com -->
    <title>E8F4EFEB-351D-4EDD-A4A6-73B2E8232648</title>
    <desc>Created with sketchtool.</desc>
    <g id="Asset-Artboard-Page" stroke="none" stroke-width="1" fill="none" fill-rule="evenodd">
        <g id="Assets-/-Icons-/-Social-/-Facebook-Assets-/-Icons-/-Social-/-Linkedin" fill-rule="nonzero">
            <path d="M3.75,5.36177998 C3.75,4.47208451 4.49477352,3.75 5.41297118,3.75 L24.5870288,3.75 C25.5055234,3.75 26.25,4.47208451 26.25,5.36177998 L26.25,24.6385151 C26.25,25.5285057 25.5055234,26.25 24.5870288,26.25 L5.41297118,26.25 C4.49477352,26.25 3.75,25.5285057 3.75,24.6388102 L3.75,5.36148489 L3.75,5.36177998 Z" id="Path" fill="#595454"></path>
            <path d="M9.93893409,22.4997061 L9.93893409,12.3787922 L6.45546502,12.3787922 L6.45546502,22.4997061 L9.93923848,22.4997061 L9.93893409,22.4997061 Z M8.19780843,10.9971976 C9.41233501,10.9971976 10.1684463,10.2199773 10.1684463,9.24874579 C10.1456169,8.25546759 9.41233501,7.5 8.22094227,7.5 C7.02863634,7.5 6.25,8.25546759 6.25,9.24874579 C6.25,10.2199773 7.0058069,10.9971976 8.17497898,10.9971976 L8.19750404,10.9971976 L8.19780843,10.9971976 Z M11.8669569,22.4997054 L15.3501217,22.4997054 L15.3501217,16.8483966 C15.3501217,16.5462096 15.3729512,16.2434347 15.4648777,16.0276708 C15.7166104,15.4230028 16.2897817,14.79717 17.2522712,14.79717 C18.5124567,14.79717 19.0168352,15.7251898 19.0168352,17.0859133 L19.0168352,22.4997054 L22.5,22.4997054 L22.5,16.6967152 C22.5,13.5881279 20.7817037,12.1415693 18.4899316,12.1415693 C16.610916,12.1415693 15.7857076,13.1557183 15.3272923,13.8465155 L15.3504261,13.8465155 L15.3504261,12.3790859 L11.8672613,12.3790859 C11.9126158,13.3285646 11.8669569,22.4999994 11.8669569,22.4999994 L11.8669569,22.4997054 Z" id="Shape" fill="#FFFFFF"></path>
        </g>
    </g>
</svg>